# Blender 3.6.5
# www.blender.org
mtllib autochisel.mtl
o Cube
v 0.503512 6.091360 -0.464938
v 0.503512 6.091360 -0.475350
v 0.553901 6.091360 -0.464938
v 0.553901 6.091360 -0.475350
v 0.494030 6.173297 -0.468687
v 0.494030 6.173297 -0.471601
v 0.563384 6.173297 -0.468687
v 0.563384 6.173297 -0.471601
v 0.496933 6.115966 -0.462717
v 0.494030 6.115966 -0.464905
v 0.495706 6.105648 -0.463980
v 0.494030 6.115966 -0.475382
v 0.496933 6.115966 -0.477571
v 0.495706 6.105648 -0.476307
v 0.563384 6.115966 -0.464905
v 0.560480 6.115966 -0.462717
v 0.561707 6.105648 -0.463980
v 0.560480 6.115966 -0.477571
v 0.563384 6.115966 -0.475382
v 0.561707 6.105648 -0.476307
v 0.496933 6.139174 -0.462717
v 0.496933 6.139174 -0.477571
v 0.560480 6.139174 -0.462717
v 0.560480 6.139174 -0.477571
v 0.529142 6.096786 -0.470520
v 0.555297 6.096786 -0.473922
v 0.555809 6.096786 -0.470285
v 0.555297 6.096786 -0.466648
v 0.502987 6.096786 -0.466648
v 0.502475 6.096786 -0.470285
v 0.502987 6.096786 -0.473922
v 0.529059 5.832062 -0.481997
v 0.529059 5.851064 -0.488927
v 0.531307 5.832062 -0.481753
v 0.532369 5.851064 -0.488569
v 0.533452 5.832062 -0.481038
v 0.535552 5.851064 -0.487508
v 0.535401 5.832062 -0.479894
v 0.538485 5.851064 -0.485786
v 0.537074 5.832062 -0.478385
v 0.541056 5.851064 -0.483467
v 0.538414 5.832062 -0.476590
v 0.543166 5.851064 -0.480642
v 0.539386 5.832062 -0.474592
v 0.544733 5.851064 -0.477419
v 0.539973 5.832062 -0.472468
v 0.545699 5.851064 -0.473922
v 0.540168 5.832062 -0.470285
v 0.546025 5.851064 -0.470285
v 0.539973 5.832062 -0.468102
v 0.545699 5.851064 -0.466648
v 0.539386 5.832062 -0.465978
v 0.544733 5.851064 -0.463151
v 0.538414 5.832062 -0.463980
v 0.543166 5.851064 -0.459928
v 0.537074 5.832062 -0.462185
v 0.541056 5.851064 -0.457103
v 0.535401 5.832062 -0.460676
v 0.538485 5.851064 -0.454785
v 0.533452 5.832062 -0.459532
v 0.535552 5.851064 -0.453062
v 0.531307 5.832062 -0.458817
v 0.532369 5.851064 -0.452001
v 0.529059 5.832062 -0.458573
v 0.529059 5.851064 -0.451643
v 0.526811 5.832062 -0.458817
v 0.525749 5.851064 -0.452001
v 0.524666 5.832062 -0.459532
v 0.522566 5.851064 -0.453062
v 0.522717 5.832062 -0.460676
v 0.519633 5.851064 -0.454785
v 0.521044 5.832062 -0.462185
v 0.517062 5.851064 -0.457103
v 0.519704 5.832062 -0.463980
v 0.514952 5.851064 -0.459928
v 0.518732 5.832062 -0.465978
v 0.513385 5.851064 -0.463151
v 0.518145 5.832062 -0.468102
v 0.512419 5.851064 -0.466648
v 0.517950 5.832062 -0.470285
v 0.512093 5.851064 -0.470285
v 0.518145 5.832062 -0.472468
v 0.512419 5.851064 -0.473922
v 0.518732 5.832062 -0.474592
v 0.513385 5.851064 -0.477419
v 0.519704 5.832062 -0.476590
v 0.514952 5.851064 -0.480642
v 0.521044 5.832062 -0.478385
v 0.517062 5.851064 -0.483467
v 0.522717 5.832062 -0.479894
v 0.519633 5.851064 -0.485786
v 0.524666 5.832062 -0.481038
v 0.522566 5.851064 -0.487508
v 0.526811 5.832062 -0.481753
v 0.525749 5.851064 -0.488569
v 0.529059 5.980426 -0.488927
v 0.532369 5.980426 -0.488569
v 0.525749 5.980426 -0.488569
v 0.535552 5.980426 -0.487508
v 0.538485 5.980426 -0.485786
v 0.541056 5.980426 -0.483467
v 0.543166 5.980426 -0.480642
v 0.544733 5.980426 -0.477419
v 0.545699 5.980426 -0.473922
v 0.546025 5.980426 -0.470285
v 0.545699 5.980426 -0.466648
v 0.544733 5.980426 -0.463151
v 0.543166 5.980426 -0.459928
v 0.541056 5.980426 -0.457103
v 0.538485 5.980426 -0.454785
v 0.535552 5.980426 -0.453062
v 0.532369 5.980426 -0.452001
v 0.529059 5.980426 -0.451643
v 0.525749 5.980426 -0.452001
v 0.522566 5.980426 -0.453062
v 0.519633 5.980426 -0.454785
v 0.517062 5.980426 -0.457103
v 0.514952 5.980426 -0.459928
v 0.513385 5.980426 -0.463151
v 0.512419 5.980426 -0.466648
v 0.512093 5.980426 -0.470285
v 0.512419 5.980426 -0.473922
v 0.513385 5.980426 -0.477419
v 0.514952 5.980426 -0.480642
v 0.517062 5.980426 -0.483467
v 0.519633 5.980426 -0.485786
v 0.522566 5.980426 -0.487508
v 0.529059 6.059812 -0.486559
v 0.526170 6.059812 -0.486246
v 0.531948 6.059812 -0.486246
v 0.534727 6.059812 -0.485320
v 0.537287 6.059812 -0.483816
v 0.539532 6.059812 -0.481793
v 0.541374 6.059812 -0.479326
v 0.542742 6.059812 -0.476513
v 0.543585 6.059812 -0.473460
v 0.543870 6.059812 -0.470285
v 0.543585 6.059812 -0.467110
v 0.542742 6.059812 -0.464057
v 0.541374 6.059812 -0.461244
v 0.539532 6.059812 -0.458778
v 0.537287 6.059812 -0.456754
v 0.534727 6.059812 -0.455250
v 0.531948 6.059812 -0.454324
v 0.529059 6.059812 -0.454011
v 0.526170 6.059812 -0.454324
v 0.523391 6.059812 -0.455250
v 0.520831 6.059812 -0.456754
v 0.518586 6.059812 -0.458778
v 0.516745 6.059812 -0.461244
v 0.515376 6.059812 -0.464057
v 0.514533 6.059812 -0.467110
v 0.514249 6.059812 -0.470285
v 0.514533 6.059812 -0.473460
v 0.515376 6.059812 -0.476513
v 0.516745 6.059812 -0.479326
v 0.518586 6.059812 -0.481793
v 0.520831 6.059812 -0.483816
v 0.523391 6.059812 -0.485320
v 0.529059 6.073155 -0.488927
v 0.525749 6.073155 -0.488569
v 0.532369 6.073155 -0.488569
v 0.535552 6.073155 -0.487508
v 0.538485 6.073155 -0.485786
v 0.541056 6.073155 -0.483467
v 0.543166 6.073155 -0.480642
v 0.544733 6.073155 -0.477419
v 0.545699 6.073155 -0.473922
v 0.546025 6.073155 -0.470285
v 0.545699 6.073155 -0.466648
v 0.544733 6.073155 -0.463151
v 0.543166 6.073155 -0.459928
v 0.541056 6.073155 -0.457103
v 0.538485 6.073155 -0.454785
v 0.535552 6.073155 -0.453062
v 0.532369 6.073155 -0.452001
v 0.529059 6.073155 -0.451643
v 0.525749 6.073155 -0.452001
v 0.522566 6.073155 -0.453062
v 0.519633 6.073155 -0.454785
v 0.517062 6.073155 -0.457103
v 0.514952 6.073155 -0.459928
v 0.513385 6.073155 -0.463151
v 0.512419 6.073155 -0.466648
v 0.512093 6.073155 -0.470285
v 0.512419 6.073155 -0.473922
v 0.513385 6.073155 -0.477419
v 0.514952 6.073155 -0.480642
v 0.517062 6.073155 -0.483467
v 0.519633 6.073155 -0.485786
v 0.522566 6.073155 -0.487508
vn -1.0000 -0.0000 -0.0000
vn -0.0000 -0.0913 0.9958
vn 1.0000 -0.0000 -0.0000
vn 0.7483 0.0311 0.6626
vn -0.7483 0.0311 -0.6626
vn -0.0000 -0.0913 -0.9958
vn 0.9332 -0.3594 -0.0000
vn -0.9332 -0.3594 -0.0000
vn -0.0000 -1.0000 -0.0000
vn -0.6018 -0.0262 0.7982
vn -0.6018 -0.0262 -0.7982
vn 0.6018 -0.0262 0.7982
vn 0.6018 -0.0262 -0.7982
vn -0.0000 1.0000 -0.0000
vn -0.0000 -0.0000 -1.0000
vn 0.7483 0.0311 -0.6626
vn -0.0000 -0.0000 1.0000
vn -0.0000 0.1724 -0.9850
vn -0.0000 0.1724 0.9850
vn -0.7483 0.0311 0.6626
vn -0.0851 0.6125 -0.7859
vn 0.4037 0.6037 -0.6874
vn 0.5372 0.5972 -0.5957
vn 0.6466 0.5905 -0.4829
vn 0.7294 0.5848 -0.3548
vn 0.0035 0.1449 -0.9894
vn 0.9200 -0.3773 -0.1060
vn 0.9200 -0.3773 0.1060
vn -0.0137 0.1524 0.9882
vn 0.7264 0.5895 0.3534
vn 0.6429 0.5967 0.4802
vn 0.5334 0.6047 0.5915
vn 0.4004 0.6123 0.6818
vn 0.2485 0.6183 0.7456
vn 0.0843 0.6217 0.7787
vn -0.0842 0.6221 0.7784
vn -0.2483 0.6193 0.7448
vn -0.3997 0.6140 0.6806
vn -0.5322 0.6071 0.5901
vn -0.6412 0.5996 0.4789
vn -0.7242 0.5928 0.3523
vn 0.0137 0.1523 0.9882
vn -0.9222 -0.3717 0.1063
vn -0.9222 -0.3717 -0.1063
vn -0.0035 0.1449 -0.9894
vn -0.7272 0.5882 -0.3538
vn -0.6448 0.5935 -0.4816
vn -0.5360 0.5996 -0.5943
vn -0.4031 0.6055 -0.6862
vn -0.2505 0.6101 -0.7517
vn 0.2508 0.6090 -0.7525
vn 0.0851 0.6121 -0.7862
vn 0.1011 -0.3409 -0.9346
vn 0.2977 -0.3370 -0.8932
vn 0.4781 -0.3300 -0.8140
vn 0.6342 -0.3210 -0.7033
vn 0.7613 -0.3116 -0.5686
vn 0.8569 -0.3032 -0.4168
vn 0.9205 -0.2968 -0.2541
vn 0.9522 -0.2935 -0.0853
vn 0.9522 -0.2935 0.0853
vn 0.9205 -0.2968 0.2541
vn 0.8569 -0.3032 0.4168
vn 0.7613 -0.3116 0.5686
vn 0.6342 -0.3210 0.7033
vn 0.4781 -0.3300 0.8140
vn 0.2977 -0.3370 0.8932
vn 0.1011 -0.3409 0.9346
vn -0.1011 -0.3409 0.9346
vn -0.2977 -0.3370 0.8932
vn -0.4781 -0.3300 0.8140
vn -0.6342 -0.3210 0.7033
vn -0.7613 -0.3116 0.5686
vn -0.8569 -0.3032 0.4169
vn -0.9205 -0.2968 0.2541
vn -0.9522 -0.2935 0.0853
vn -0.9522 -0.2935 -0.0853
vn -0.9205 -0.2968 -0.2541
vn -0.8569 -0.3032 -0.4169
vn -0.7613 -0.3116 -0.5686
vn -0.6342 -0.3210 -0.7033
vn -0.4781 -0.3300 -0.8140
vn -0.2977 -0.3370 -0.8932
vn -0.1011 -0.3409 -0.9346
vn 0.1076 -0.0000 -0.9942
vn 0.3162 -0.0000 -0.9487
vn -0.3162 -0.0000 -0.9487
vn -0.5064 -0.0000 -0.8623
vn -0.6697 -0.0000 -0.7426
vn -0.8012 -0.0000 -0.5984
vn -0.8993 -0.0000 -0.4374
vn -0.9639 -0.0000 -0.2661
vn -0.9960 -0.0000 -0.0893
vn -0.9960 -0.0000 0.0893
vn -0.9639 -0.0000 0.2661
vn -0.8993 -0.0000 0.4374
vn -0.8012 -0.0000 0.5984
vn -0.6697 -0.0000 0.7426
vn -0.5064 -0.0000 0.8623
vn -0.3162 -0.0000 0.9487
vn -0.1076 -0.0000 0.9942
vn 0.1076 -0.0000 0.9942
vn 0.3162 -0.0000 0.9487
vn 0.5064 -0.0000 0.8623
vn 0.6697 -0.0000 0.7426
vn 0.8012 -0.0000 0.5984
vn 0.8992 -0.0000 0.4374
vn 0.9639 -0.0000 0.2661
vn 0.9960 -0.0000 0.0893
vn 0.9960 -0.0000 -0.0893
vn 0.9639 -0.0000 -0.2661
vn 0.8992 -0.0000 -0.4374
vn 0.8012 -0.0000 -0.5984
vn 0.6697 -0.0000 -0.7426
vn 0.5064 -0.0000 -0.8623
vn -0.1076 -0.0000 -0.9942
vn 0.1075 0.0296 -0.9938
vn 0.3161 0.0294 -0.9483
vn -0.3161 0.0294 -0.9483
vn -0.5062 0.0290 -0.8619
vn -0.6694 0.0285 -0.7423
vn -0.8009 0.0280 -0.5982
vn -0.8989 0.0275 -0.4373
vn -0.9636 0.0272 -0.2660
vn -0.9956 0.0270 -0.0892
vn -0.9956 0.0270 0.0892
vn -0.9636 0.0272 0.2660
vn -0.8989 0.0275 0.4373
vn -0.8009 0.0280 0.5982
vn -0.6694 0.0285 0.7423
vn -0.5062 0.0290 0.8619
vn -0.3161 0.0294 0.9483
vn -0.1075 0.0296 0.9938
vn 0.1075 0.0296 0.9938
vn 0.3161 0.0294 0.9483
vn 0.5062 0.0290 0.8619
vn 0.6694 0.0285 0.7423
vn 0.8009 0.0280 0.5982
vn 0.8989 0.0275 0.4373
vn 0.9636 0.0272 0.2660
vn 0.9956 0.0270 0.0892
vn 0.9956 0.0270 -0.0892
vn 0.9636 0.0272 -0.2660
vn 0.8989 0.0275 -0.4373
vn 0.8009 0.0280 -0.5982
vn 0.6694 0.0285 -0.7423
vn 0.5062 0.0290 -0.8619
vn -0.1075 0.0296 -0.9938
vn 0.1060 -0.1738 -0.9791
vn 0.3115 -0.1725 -0.9345
vn -0.3115 -0.1725 -0.9345
vn -0.4991 -0.1702 -0.8497
vn -0.6603 -0.1673 -0.7322
vn -0.7903 -0.1644 -0.5903
vn -0.8874 -0.1618 -0.4317
vn -0.9515 -0.1598 -0.2627
vn -0.9834 -0.1588 -0.0881
vn -0.9834 -0.1588 0.0881
vn -0.9515 -0.1598 0.2627
vn -0.8874 -0.1618 0.4317
vn -0.7903 -0.1644 0.5903
vn -0.6603 -0.1673 0.7322
vn -0.4991 -0.1702 0.8497
vn -0.3115 -0.1725 0.9345
vn -0.1060 -0.1738 0.9791
vn 0.1060 -0.1738 0.9791
vn 0.3115 -0.1725 0.9345
vn 0.4991 -0.1702 0.8497
vn 0.6603 -0.1673 0.7322
vn 0.7903 -0.1644 0.5903
vn 0.8874 -0.1618 0.4317
vn 0.9515 -0.1598 0.2627
vn 0.9834 -0.1588 0.0881
vn 0.9834 -0.1588 -0.0881
vn 0.9515 -0.1598 -0.2627
vn 0.8874 -0.1618 -0.4317
vn 0.7903 -0.1644 -0.5903
vn 0.6603 -0.1673 -0.7322
vn 0.4991 -0.1702 -0.8497
vn -0.1060 -0.1738 -0.9791
vt 0.382257 0.036838
vt 0.625000 0.036838
vt 0.625000 0.213162
vt 0.382257 0.213162
vt 0.135619 0.712620
vt 0.364381 0.712620
vt 0.368958 0.728731
vt 0.364535 0.750000
vt 0.135465 0.750000
vt 0.131042 0.728731
vt 0.382257 0.536838
vt 0.625000 0.536838
vt 0.625000 0.713162
vt 0.382257 0.713162
vt 0.513504 0.760465
vt 0.382257 0.760465
vt 0.513504 0.260465
vt 0.382257 0.260465
vt 0.364381 0.537380
vt 0.135619 0.537380
vt 0.131042 0.521269
vt 0.135465 0.500000
vt 0.364535 0.500000
vt 0.368958 0.521269
vt 0.372086 0.521269
vt 0.372086 0.728731
vt 0.131042 0.728731
vt 0.125000 0.713162
vt 0.125000 0.536838
vt 0.131042 0.521269
vt 0.128488 0.737721
vt 0.131042 0.728731
vt 0.128488 0.512279
vt 0.371512 0.737720
vt 0.371512 0.512279
vt 0.625000 0.536838
vt 0.875000 0.536838
vt 0.875000 0.713162
vt 0.625000 0.713162
vt 0.513504 0.489535
vt 0.382257 0.489535
vt 0.513504 0.760465
vt 0.513504 0.989535
vt 0.382257 0.989535
vt 0.625000 0.260465
vt 0.625000 0.489535
vt 0.625000 0.760465
vt 0.625000 0.989535
vt 0.382257 0.000000
vt 0.513504 0.000000
vt 0.031250 0.939701
vt 0.000000 1.000000
vt 0.000000 0.939701
vt 0.937500 0.939701
vt 0.906250 1.000000
vt 0.906250 0.939701
vt 0.875000 1.000000
vt 0.875000 0.939701
vt 0.843750 1.000000
vt 0.843750 0.939701
vt 0.812500 1.000000
vt 0.812500 0.939701
vt 0.781250 1.000000
vt 0.781250 0.939701
vt 0.750000 1.000000
vt 0.750000 0.939701
vt 0.718750 1.000000
vt 0.718750 0.939701
vt 0.687500 1.000000
vt 0.687500 0.939701
vt 0.656250 1.000000
vt 0.656250 0.939701
vt 0.625000 1.000000
vt 0.625000 0.939701
vt 0.593750 1.000000
vt 0.593750 0.939701
vt 0.562500 1.000000
vt 0.562500 0.939701
vt 0.531250 1.000000
vt 0.531250 0.939701
vt 0.500000 1.000000
vt 0.500000 0.939701
vt 0.468750 1.000000
vt 0.468750 0.939701
vt 0.437500 1.000000
vt 0.437500 0.939701
vt 0.406250 1.000000
vt 0.406250 0.939701
vt 0.375000 1.000000
vt 0.375000 0.939701
vt 0.343750 1.000000
vt 0.343750 0.939701
vt 0.312500 1.000000
vt 0.312500 0.939701
vt 0.281250 1.000000
vt 0.281250 0.939701
vt 0.250000 1.000000
vt 0.250000 0.939701
vt 0.218750 1.000000
vt 0.218750 0.939701
vt 0.187500 1.000000
vt 0.187500 0.939701
vt 0.156250 1.000000
vt 0.156250 0.939701
vt 0.125000 1.000000
vt 0.125000 0.939701
vt 0.093750 1.000000
vt 0.093750 0.939701
vt 0.062500 1.000000
vt 0.062500 0.939701
vt 0.031250 1.000000
vt 0.968750 0.939701
vt 0.937500 1.000000
vt 1.000000 0.939701
vt 0.968750 1.000000
vt 0.750000 0.490000
vt 0.796822 0.485388
vt 0.781798 0.397644
vt 0.750000 0.400775
vt 0.841844 0.471731
vt 0.812145 0.388438
vt 0.883337 0.449553
vt 0.839709 0.373705
vt 0.919706 0.419706
vt 0.863380 0.354278
vt 0.949553 0.383337
vt 0.882342 0.331173
vt 0.971731 0.341844
vt 0.896090 0.305452
vt 0.985388 0.296822
vt 0.904385 0.278107
vt 0.990000 0.250000
vt 0.907153 0.250000
vt 0.985388 0.203178
vt 0.904385 0.221893
vt 0.971731 0.158156
vt 0.896090 0.194548
vt 0.949553 0.116663
vt 0.882342 0.168827
vt 0.919706 0.080294
vt 0.863380 0.145722
vt 0.883337 0.050447
vt 0.839709 0.126295
vt 0.841844 0.028269
vt 0.812145 0.111562
vt 0.796822 0.014612
vt 0.781798 0.102356
vt 0.750000 0.010000
vt 0.750000 0.099225
vt 0.703178 0.014612
vt 0.718202 0.102356
vt 0.658156 0.028269
vt 0.687855 0.111562
vt 0.616663 0.050447
vt 0.660291 0.126295
vt 0.580294 0.080294
vt 0.636620 0.145722
vt 0.550447 0.116663
vt 0.617658 0.168827
vt 0.528269 0.158156
vt 0.603910 0.194548
vt 0.514612 0.203178
vt 0.595615 0.221893
vt 0.510000 0.250000
vt 0.592847 0.250000
vt 0.514612 0.296822
vt 0.595615 0.278107
vt 0.528269 0.341844
vt 0.603910 0.305452
vt 0.550447 0.383337
vt 0.617658 0.331173
vt 0.580294 0.419706
vt 0.636620 0.354278
vt 0.616663 0.449553
vt 0.660291 0.373705
vt 0.658156 0.471731
vt 0.687855 0.388438
vt 0.703178 0.485388
vt 0.718202 0.397644
vt 1.000000 0.517611
vt 1.000000 0.758806
vt 0.968750 0.758806
vt 0.968750 0.517611
vt 0.937500 0.758806
vt 0.937500 0.517611
vt 0.062500 0.517611
vt 0.062500 0.758806
vt 0.031250 0.758806
vt 0.031250 0.517611
vt 0.093750 0.517611
vt 0.093750 0.758806
vt 0.125000 0.517611
vt 0.125000 0.758806
vt 0.156250 0.517611
vt 0.156250 0.758806
vt 0.187500 0.517611
vt 0.187500 0.758806
vt 0.156250 0.517611
vt 0.218750 0.517611
vt 0.218750 0.758806
vt 0.250000 0.517611
vt 0.250000 0.758806
vt 0.281250 0.517611
vt 0.281250 0.758806
vt 0.312500 0.517611
vt 0.312500 0.758806
vt 0.343750 0.517611
vt 0.343750 0.758806
vt 0.312500 0.517611
vt 0.375000 0.517611
vt 0.375000 0.758806
vt 0.406250 0.517611
vt 0.406250 0.758806
vt 0.437500 0.517611
vt 0.437500 0.758806
vt 0.468750 0.517611
vt 0.468750 0.758806
vt 0.500000 0.517611
vt 0.500000 0.758806
vt 0.531250 0.517611
vt 0.531250 0.758806
vt 0.562500 0.517611
vt 0.562500 0.758806
vt 0.593750 0.517611
vt 0.593750 0.758806
vt 0.625000 0.517611
vt 0.625000 0.758806
vt 0.656250 0.517611
vt 0.656250 0.758806
vt 0.625000 0.517611
vt 0.687500 0.517611
vt 0.687500 0.758806
vt 0.718750 0.517611
vt 0.718750 0.758806
vt 0.750000 0.517611
vt 0.750000 0.758806
vt 0.781250 0.517611
vt 0.781250 0.758806
vt 0.812500 0.517611
vt 0.812500 0.758806
vt 0.843750 0.517611
vt 0.843750 0.758806
vt 0.875000 0.517611
vt 0.875000 0.758806
vt 0.906250 0.517611
vt 0.906250 0.758806
vt 0.000000 0.758806
vt 0.000000 0.517611
vt 1.000000 0.879403
vt 0.968750 0.879403
vt 0.937500 0.879403
vt 0.062500 0.879403
vt 0.031250 0.879403
vt 0.093750 0.879403
vt 0.125000 0.879403
vt 0.156250 0.879403
vt 0.187500 0.879403
vt 0.218750 0.879403
vt 0.250000 0.879403
vt 0.281250 0.879403
vt 0.312500 0.879403
vt 0.343750 0.879403
vt 0.375000 0.879403
vt 0.406250 0.879403
vt 0.437500 0.879403
vt 0.468750 0.879403
vt 0.500000 0.879403
vt 0.531250 0.879403
vt 0.562500 0.879403
vt 0.593750 0.879403
vt 0.625000 0.879403
vt 0.656250 0.879403
vt 0.687500 0.879403
vt 0.718750 0.879403
vt 0.750000 0.879403
vt 0.781250 0.879403
vt 0.812500 0.879403
vt 0.843750 0.879403
vt 0.875000 0.879403
vt 0.906250 0.879403
vt 0.000000 0.879403
vt 0.471731 0.158156
vt 0.485388 0.203178
vt 0.490000 0.250000
vt 0.485388 0.296822
vt 0.028269 0.341844
vt 0.014612 0.296822
vt 0.010000 0.250000
vt 0.014612 0.203178
s 0
usemtl Material
f 10/1/1 5/2/1 6/3/1 12/4/1
f 1/5/2 3/6/2 17/7/2 16/8/2 9/9/2 11/10/2
f 19/11/3 8/12/3 7/13/3 15/14/3
f 15/14/4 7/13/4 23/15/4 16/16/4
f 6/3/5 22/17/5 13/18/5 12/4/5
f 4/19/6 2/20/6 14/21/6 13/22/6 18/23/6 20/24/6
f 3/6/7 4/19/7 20/25/7 19/11/7 15/14/7 17/26/7
f 2/20/8 1/5/8 11/27/8 10/28/8 12/29/8 14/30/8
f 2/20/9 4/19/9 3/6/9 1/5/9
f 9/31/10 10/28/10 11/32/10
f 12/29/11 13/33/11 14/30/11
f 15/34/12 16/8/12 17/7/12
f 18/23/13 19/35/13 20/24/13
f 8/36/14 6/37/14 5/38/14 7/39/14
f 13/18/15 22/17/15 24/40/15 18/41/15
f 8/12/16 19/11/16 18/41/16 24/40/16
f 16/16/17 23/42/17 21/43/17 9/44/17
f 24/40/18 22/17/18 6/45/18 8/46/18
f 21/43/19 23/42/19 7/47/19 5/48/19
f 9/49/20 21/50/20 5/2/20 10/1/20
f 161/51/21 25/52/21 160/53/21
f 163/54/22 25/55/22 164/56/22
f 164/56/23 25/57/23 165/58/23
f 165/58/24 25/59/24 166/60/24
f 166/60/25 25/61/25 167/62/25
f 167/62/26 25/61/26 26/63/26 168/64/26
f 168/64/27 26/63/27 27/65/27 169/66/27
f 169/66/28 27/65/28 28/67/28 170/68/28
f 170/68/29 28/67/29 25/69/29 171/70/29
f 171/70/30 25/71/30 172/72/30
f 172/72/31 25/73/31 173/74/31
f 173/74/32 25/75/32 174/76/32
f 174/76/33 25/77/33 175/78/33
f 175/78/34 25/79/34 176/80/34
f 176/80/35 25/81/35 177/82/35
f 177/82/36 25/83/36 178/84/36
f 178/84/37 25/85/37 179/86/37
f 179/86/38 25/87/38 180/88/38
f 180/88/39 25/89/39 181/90/39
f 181/90/40 25/91/40 182/92/40
f 182/92/41 25/93/41 183/94/41
f 183/94/42 25/93/42 29/95/42 184/96/42
f 184/96/43 29/95/43 30/97/43 185/98/43
f 185/98/44 30/97/44 31/99/44 186/100/44
f 186/100/45 31/99/45 25/101/45 187/102/45
f 187/102/46 25/103/46 188/104/46
f 188/104/47 25/105/47 189/106/47
f 189/106/48 25/107/48 190/108/48
f 190/108/49 25/109/49 191/110/49
f 191/110/50 25/111/50 161/51/50
f 162/112/51 25/113/51 163/54/51
f 160/114/52 25/115/52 162/112/52
f 25/282/14 28/283/14 27/284/14 26/285/14
f 25/286/14 31/287/14 30/288/14 29/289/14
usemtl Material.001
f 33/180/85 96/181/85 97/182/85 35/183/85
f 35/183/86 97/182/86 99/184/86 37/185/86
f 93/186/87 127/187/87 98/188/87 95/189/87
f 91/190/88 126/191/88 127/187/88 93/186/88
f 89/192/89 125/193/89 126/191/89 91/190/89
f 87/194/90 124/195/90 125/193/90 89/192/90
f 85/196/91 123/197/91 124/195/91 87/198/91
f 83/199/92 122/200/92 123/197/92 85/196/92
f 81/201/93 121/202/93 122/200/93 83/199/93
f 79/203/94 120/204/94 121/202/94 81/201/94
f 77/205/95 119/206/95 120/204/95 79/203/95
f 75/207/96 118/208/96 119/206/96 77/209/96
f 73/210/97 117/211/97 118/208/97 75/207/97
f 71/212/98 116/213/98 117/211/98 73/210/98
f 69/214/99 115/215/99 116/213/99 71/212/99
f 67/216/100 114/217/100 115/215/100 69/214/100
f 65/218/101 113/219/101 114/217/101 67/216/101
f 63/220/102 112/221/102 113/219/102 65/218/102
f 61/222/103 111/223/103 112/221/103 63/220/103
f 59/224/104 110/225/104 111/223/104 61/222/104
f 57/226/105 109/227/105 110/225/105 59/224/105
f 55/228/106 108/229/106 109/227/106 57/230/106
f 53/231/107 107/232/107 108/229/107 55/228/107
f 51/233/108 106/234/108 107/232/108 53/231/108
f 49/235/109 105/236/109 106/234/109 51/233/109
f 47/237/110 104/238/110 105/236/110 49/235/110
f 45/239/111 103/240/111 104/238/111 47/237/111
f 43/241/112 102/242/112 103/240/112 45/239/112
f 41/243/113 101/244/113 102/242/113 43/241/113
f 39/245/114 100/246/114 101/244/114 41/243/114
f 37/185/115 99/184/115 100/246/115 39/245/115
f 95/189/116 98/188/116 96/247/116 33/248/116
usemtl Material.002
f 33/116/53 35/117/53 34/118/53 32/119/53
f 35/117/54 37/120/54 36/121/54 34/118/54
f 37/120/55 39/122/55 38/123/55 36/121/55
f 39/122/56 41/124/56 40/125/56 38/123/56
f 41/124/57 43/126/57 42/127/57 40/125/57
f 43/126/58 45/128/58 44/129/58 42/127/58
f 45/128/59 47/130/59 46/131/59 44/129/59
f 47/130/60 49/132/60 48/133/60 46/131/60
f 49/132/61 51/134/61 50/135/61 48/133/61
f 51/134/62 53/136/62 52/137/62 50/135/62
f 53/136/63 55/138/63 54/139/63 52/137/63
f 55/138/64 57/140/64 56/141/64 54/139/64
f 57/140/65 59/142/65 58/143/65 56/141/65
f 59/142/66 61/144/66 60/145/66 58/143/66
f 61/144/67 63/146/67 62/147/67 60/145/67
f 63/146/68 65/148/68 64/149/68 62/147/68
f 65/148/69 67/150/69 66/151/69 64/149/69
f 67/150/70 69/152/70 68/153/70 66/151/70
f 69/152/71 71/154/71 70/155/71 68/153/71
f 71/154/72 73/156/72 72/157/72 70/155/72
f 73/156/73 75/158/73 74/159/73 72/157/73
f 75/158/74 77/160/74 76/161/74 74/159/74
f 77/160/75 79/162/75 78/163/75 76/161/75
f 79/162/76 81/164/76 80/165/76 78/163/76
f 81/164/77 83/166/77 82/167/77 80/165/77
f 83/166/78 85/168/78 84/169/78 82/167/78
f 85/168/79 87/170/79 86/171/79 84/169/79
f 87/170/80 89/172/80 88/173/80 86/171/80
f 89/172/81 91/174/81 90/175/81 88/173/81
f 91/174/82 93/176/82 92/177/82 90/175/82
f 93/176/83 95/178/83 94/179/83 92/177/83
f 95/178/84 33/116/84 32/119/84 94/179/84
f 32/119/9 34/118/9 36/121/9 38/123/9 40/125/9 42/127/9 44/129/9 46/131/9 48/133/9 50/135/9 52/137/9 54/139/9 56/141/9 58/143/9 60/145/9 62/147/9 64/149/9 66/151/9 68/153/9 70/155/9 72/157/9 74/159/9 76/161/9 78/163/9 80/165/9 82/167/9 84/169/9 86/171/9 88/173/9 90/175/9 92/177/9 94/179/9
f 96/181/117 128/249/117 130/250/117 97/182/117
f 97/182/118 130/250/118 131/251/118 99/184/118
f 127/187/119 159/252/119 129/253/119 98/188/119
f 126/191/120 158/254/120 159/252/120 127/187/120
f 125/193/121 157/255/121 158/254/121 126/191/121
f 124/195/122 156/256/122 157/255/122 125/193/122
f 123/197/123 155/257/123 156/256/123 124/195/123
f 122/200/124 154/258/124 155/257/124 123/197/124
f 121/202/125 153/259/125 154/258/125 122/200/125
f 120/204/126 152/260/126 153/259/126 121/202/126
f 119/206/127 151/261/127 152/260/127 120/204/127
f 118/208/128 150/262/128 151/261/128 119/206/128
f 117/211/129 149/263/129 150/262/129 118/208/129
f 116/213/130 148/264/130 149/263/130 117/211/130
f 115/215/131 147/265/131 148/264/131 116/213/131
f 114/217/132 146/266/132 147/265/132 115/215/132
f 113/219/133 145/267/133 146/266/133 114/217/133
f 112/221/134 144/268/134 145/267/134 113/219/134
f 111/223/135 143/269/135 144/268/135 112/221/135
f 110/225/136 142/270/136 143/269/136 111/223/136
f 109/227/137 141/271/137 142/270/137 110/225/137
f 108/229/138 140/272/138 141/271/138 109/227/138
f 107/232/139 139/273/139 140/272/139 108/229/139
f 106/234/140 138/274/140 139/273/140 107/232/140
f 105/236/141 137/275/141 138/274/141 106/234/141
f 104/238/142 136/276/142 137/275/142 105/236/142
f 103/240/143 135/277/143 136/276/143 104/238/143
f 102/242/144 134/278/144 135/277/144 103/240/144
f 101/244/145 133/279/145 134/278/145 102/242/145
f 100/246/146 132/280/146 133/279/146 101/244/146
f 99/184/147 131/251/147 132/280/147 100/246/147
f 98/188/148 129/253/148 128/281/148 96/247/148
usemtl Material.003
f 128/249/149 160/114/149 162/112/149 130/250/149
f 130/250/150 162/112/150 163/54/150 131/251/150
f 159/252/151 191/110/151 161/51/151 129/253/151
f 158/254/152 190/108/152 191/110/152 159/252/152
f 157/255/153 189/106/153 190/108/153 158/254/153
f 156/256/154 188/104/154 189/106/154 157/255/154
f 155/257/155 187/102/155 188/104/155 156/256/155
f 154/258/156 186/100/156 187/102/156 155/257/156
f 153/259/157 185/98/157 186/100/157 154/258/157
f 152/260/158 184/96/158 185/98/158 153/259/158
f 151/261/159 183/94/159 184/96/159 152/260/159
f 150/262/160 182/92/160 183/94/160 151/261/160
f 149/263/161 181/90/161 182/92/161 150/262/161
f 148/264/162 180/88/162 181/90/162 149/263/162
f 147/265/163 179/86/163 180/88/163 148/264/163
f 146/266/164 178/84/164 179/86/164 147/265/164
f 145/267/165 177/82/165 178/84/165 146/266/165
f 144/268/166 176/80/166 177/82/166 145/267/166
f 143/269/167 175/78/167 176/80/167 144/268/167
f 142/270/168 174/76/168 175/78/168 143/269/168
f 141/271/169 173/74/169 174/76/169 142/270/169
f 140/272/170 172/72/170 173/74/170 141/271/170
f 139/273/171 171/70/171 172/72/171 140/272/171
f 138/274/172 170/68/172 171/70/172 139/273/172
f 137/275/173 169/66/173 170/68/173 138/274/173
f 136/276/174 168/64/174 169/66/174 137/275/174
f 135/277/175 167/62/175 168/64/175 136/276/175
f 134/278/176 166/60/176 167/62/176 135/277/176
f 133/279/177 165/58/177 166/60/177 134/278/177
f 132/280/178 164/56/178 165/58/178 133/279/178
f 131/251/179 163/54/179 164/56/179 132/280/179
f 129/253/180 161/51/180 160/53/180 128/281/180
